<svg width="525" height="379" viewBox="0 0 525 379" fill="none" xmlns="http://www.w3.org/2000/svg">
<g clip-path="url(#clip0)">
<path d="M460.549 184.608H455.876V369.16H460.549V184.608Z" fill="#3F3D56"/>
<path d="M503.679 208.127C503.976 272.66 458.563 325.185 458.563 325.185C458.563 325.185 412.667 273.081 412.369 208.548C412.072 144.015 457.485 91.4897 457.485 91.4897C457.485 91.4897 503.381 143.594 503.679 208.127Z" fill="#E6E6E6"/>
<path d="M367.106 271.442H364.703V366.362H367.106V271.442Z" fill="#3F3D56"/>
<path d="M389.289 283.539C389.442 316.73 366.085 343.744 366.085 343.744C366.085 343.744 342.479 316.946 342.326 283.755C342.173 250.564 365.531 223.549 365.531 223.549C365.531 223.549 389.136 250.348 389.289 283.539Z" fill="#E6E6E6"/>
<path d="M414.483 379C450.449 379 479.605 374.532 479.605 369.02C479.605 363.509 450.449 359.04 414.483 359.04C378.517 359.04 349.361 363.509 349.361 369.02C349.361 374.532 378.517 379 414.483 379Z" fill="#E6E6E6"/>
<path d="M419.854 136.428C414.337 127.108 403.421 126.674 403.421 126.674C403.421 126.674 392.785 125.314 385.961 139.509C379.602 152.74 370.824 165.514 384.548 168.611L387.027 160.897L388.562 169.186C390.516 169.326 392.477 169.36 394.434 169.286C409.132 168.811 423.129 169.425 422.678 164.152C422.079 157.143 425.162 145.396 419.854 136.428Z" fill="#2F2E41"/>
<path d="M399.985 153.98C399.985 153.98 407.115 163.96 402.837 172.039C398.559 180.118 412.82 188.672 412.82 188.672L423.277 165.861C423.277 165.861 410.918 157.782 414.246 150.179L399.985 153.98Z" fill="#FBBEBE"/>
<path d="M404.738 158.257C411.564 158.257 417.097 152.726 417.097 145.902C417.097 139.078 411.564 133.546 404.738 133.546C397.913 133.546 392.379 139.078 392.379 145.902C392.379 152.726 397.913 158.257 404.738 158.257Z" fill="#FBBEBE"/>
<path d="M361.967 160.185L372.296 146.863C372.296 146.863 375.932 132.898 381.199 133.606C386.466 134.314 379.119 150.353 379.119 150.353L368.857 165.099L361.967 160.185Z" fill="#FBBEBE"/>
<path d="M414.246 337.418L417.573 355.001L424.703 356.902L422.802 335.992L414.246 337.418Z" fill="#FBBEBE"/>
<path d="M486.022 318.409L498.857 335.992L504.085 338.368L508.363 331.24L495.529 314.607L486.022 318.409Z" fill="#FBBEBE"/>
<path d="M411.393 181.068L403.464 170.633C403.464 170.633 388.102 173.465 386.676 174.89C385.25 176.316 390.478 202.454 390.478 202.454C390.478 202.454 391.429 209.582 395.707 213.384L399.985 216.235L435.161 209.107L436.483 193.459C436.965 187.76 436.25 182.023 434.386 176.616C432.521 171.209 429.547 166.251 425.654 162.059L419.533 162.896L411.393 181.068Z" fill="white"/>
<path d="M388.577 175.841L386.2 174.89L375.267 173.94C375.267 173.94 371.465 172.989 372.415 171.089C373.366 169.188 374.317 168.712 372.415 168.237C370.514 167.762 370.039 167.287 370.514 165.861C370.989 164.435 373.841 161.584 373.841 161.584L365.761 154.931C365.761 154.931 365.323 155.24 364.616 155.812C360.604 159.06 347.909 170.777 357.204 182.494C368.137 196.276 380.972 204.354 391.429 201.503L388.577 175.841Z" fill="white"/>
<path d="M399.035 213.859V220.512C399.035 220.512 394.757 228.591 396.183 236.195C397.609 243.798 398.084 247.6 398.084 247.6C398.239 254.067 399.361 260.474 401.411 266.609C404.739 276.114 393.806 338.368 407.591 339.319C421.376 340.269 428.981 341.22 433.259 336.467C437.537 331.715 426.129 249.976 426.129 249.976C426.129 249.976 465.107 331.24 473.188 327.913C481.269 324.587 501.708 316.983 499.332 312.706C496.955 308.429 437.062 213.384 437.062 213.384L435.161 209.107L399.035 213.859Z" fill="#2F2E41"/>
<path d="M421.851 351.674C421.851 351.674 414.246 351.199 414.246 353.575C414.246 355.951 410.443 364.03 410.443 364.03C410.443 364.03 407.591 373.535 415.196 372.584C422.802 371.634 427.555 363.08 427.555 363.08L425.654 354.051L421.851 351.674Z" fill="#2F2E41"/>
<path d="M501.233 335.042C501.233 335.042 494.578 330.765 495.054 333.616C495.529 336.467 496.004 344.071 499.332 344.546C502.659 345.021 512.641 347.873 513.117 348.823C513.592 349.774 525 353.575 525 347.397C525 341.22 517.87 336.467 517.87 336.467L509.789 330.289C509.789 330.289 504.56 329.814 503.61 333.141C502.659 336.467 501.233 335.042 501.233 335.042Z" fill="#2F2E41"/>
<path d="M404.757 134.612C409.116 134.612 412.65 131.079 412.65 126.721C412.65 122.363 409.116 118.831 404.757 118.831C400.398 118.831 396.865 122.363 396.865 126.721C396.865 131.079 400.398 134.612 404.757 134.612Z" fill="#2F2E41"/>
<path d="M396.034 124.645C396.034 122.696 396.756 120.816 398.06 119.367C399.363 117.919 401.157 117.004 403.096 116.799C402.82 116.769 402.543 116.754 402.265 116.754C400.172 116.754 398.164 117.585 396.684 119.065C395.204 120.545 394.373 122.552 394.373 124.645C394.373 126.737 395.204 128.744 396.684 130.224C398.164 131.704 400.172 132.535 402.265 132.535C402.543 132.535 402.82 132.52 403.096 132.491C401.157 132.286 399.363 131.371 398.06 129.922C396.756 128.473 396.034 126.593 396.034 124.645Z" fill="#2F2E41"/>
<path d="M417.415 135.53L406.631 129.883L391.739 132.193L388.658 145.798L396.328 145.503L398.471 140.505V145.421L402.01 145.285L404.063 137.327L405.347 145.798L417.929 145.541L417.415 135.53Z" fill="#2F2E41"/>
<path d="M416.769 214.96L400.138 215.409C400.138 215.409 385.947 218.17 386.743 212.444C387.539 206.717 401.384 208.72 401.384 208.72L416.537 206.409L416.769 214.96Z" fill="#FBBEBE"/>
<path d="M429.928 161.254C430.764 161.127 431.617 161.303 432.335 161.75C433.053 162.197 433.587 162.885 433.843 163.691C437.098 173.948 447.129 208.273 437.163 212.982C425.425 218.529 416.859 218.285 416.859 218.285L412.274 207L416.448 203.084L420.904 174.439L423.039 162.297L429.928 161.254Z" fill="white"/>
<path opacity="0.4" d="M426.843 180.355L424.941 199.365L408.304 206.493L426.843 202.216V180.355Z" fill="black"/>
<path d="M337.119 117.601C342.478 119.02 347.114 122.387 350.121 127.043L351.676 129.451L351.754 129.55L379.032 137.53C379.532 137.676 379.954 138.013 380.209 138.467C380.463 138.922 380.529 139.458 380.391 139.961L378.274 147.724C378.205 147.976 378.086 148.213 377.926 148.42C377.765 148.627 377.565 148.8 377.336 148.93C377.108 149.059 376.857 149.142 376.597 149.174C376.337 149.205 376.073 149.185 375.82 149.115L348.536 141.49L348.535 141.491L345.795 142.527C340.749 144.434 335.215 144.622 330.051 143.062L337.119 117.601Z" fill="#3F3D56"/>
<path d="M365.845 140.114C366.104 139.231 364.971 138.123 363.315 137.639C361.66 137.154 360.108 137.477 359.85 138.36C359.592 139.243 360.724 140.351 362.38 140.835C364.035 141.319 365.587 140.996 365.845 140.114Z" fill="#575A89"/>
<path d="M364.452 140.928C365.085 140.928 365.598 140.415 365.598 139.783C365.598 139.151 365.085 138.638 364.452 138.638C363.82 138.638 363.307 139.151 363.307 139.783C363.307 140.415 363.82 140.928 364.452 140.928Z" fill="#3F3D56"/>
<path d="M339.399 132.304C341.674 125.291 340.946 118.772 337.774 117.744C334.602 116.716 330.186 121.567 327.912 128.58C325.637 135.594 326.365 142.113 329.537 143.141C332.709 144.169 337.124 139.318 339.399 132.304Z" fill="#00B3FE"/>
<path opacity="0.4" d="M338.552 132.057C340.744 125.299 340.147 119.001 337.263 117.631C337.437 117.653 337.608 117.691 337.774 117.744C340.947 118.772 341.674 125.291 339.4 132.305C337.125 139.318 332.709 144.169 329.537 143.141C329.422 143.103 329.31 143.058 329.201 143.006C332.321 143.403 336.397 138.7 338.552 132.057Z" fill="black"/>
<path d="M337.478 117.626L275.57 69.6158C264.623 61.0648 254.118 51.9627 244.095 42.3447C226.448 25.5275 202.492 12.0819 174.6 4.92336C106.835 -12.4688 53.1507 18.3696 28.7338 63.651C-8.57797 132.846 -37.1725 245.13 128.267 185.361C164.449 172.29 201.073 170.9 228.843 164.015L329.397 143.288L337.478 117.626Z" fill="#00B3FE"/>
<path d="M151.619 36.8372C153.457 36.8372 154.946 35.3478 154.946 33.5106C154.946 31.6734 153.457 30.184 151.619 30.184C149.781 30.184 148.292 31.6734 148.292 33.5106C148.292 35.3478 149.781 36.8372 151.619 36.8372Z" fill="#F2F2F2"/>
<path d="M216.256 41.1997H215.39V40.3339H215.221V41.1997H214.354V41.3689H215.221V42.2348H215.39V41.3689H216.256V41.1997Z" fill="#F2F2F2"/>
<path d="M303.244 113.434H302.378V112.568H302.208V113.434H301.342V113.603H302.208V114.469H302.378V113.603H303.244V113.434Z" fill="#F2F2F2"/>
<path d="M297.064 135.77H296.198V134.904H296.029V135.77H295.163V135.939H296.029V136.805H296.198V135.939H297.064V135.77Z" fill="#F2F2F2"/>
<path d="M31.3481 154.779H30.4821V153.913H30.3128V154.779H29.4468V154.948H30.3128V155.814H30.4821V154.948H31.3481V154.779Z" fill="#F2F2F2"/>
<path d="M69.3755 51.1795H68.5094V50.3137H68.3402V51.1795H67.4741V51.3487H68.3402V52.2146H68.5094V51.3487H69.3755V51.1795Z" fill="#F2F2F2"/>
<path d="M217.207 139.572H216.341V138.706H216.172V139.572H215.306V139.741H216.172V140.607H216.341V139.741H217.207V139.572Z" fill="#F2F2F2"/>
<path d="M126.416 20.765H125.55V19.8992H125.381V20.765H124.515V20.9342H125.381V21.8001H125.55V20.9342H126.416V20.765Z" fill="#F2F2F2"/>
<path d="M126.75 89.1871L125.671 89.3535C126.008 91.511 126.275 93.716 126.469 95.8973L127.558 95.8023C127.363 93.5925 127.092 91.3684 126.75 89.1871Z" fill="#E6E6E6"/>
<path d="M123.798 76.1944L122.752 76.5128C123.384 78.6038 123.95 80.7471 124.43 82.8808L125.499 82.6385C125.01 80.4809 124.435 78.3139 123.798 76.1944Z" fill="#E6E6E6"/>
<path d="M119.087 63.734L118.093 64.1902C119.006 66.1814 119.862 68.2249 120.636 70.2684L121.658 69.8834C120.874 67.8162 120.014 65.7442 119.087 63.734Z" fill="#E6E6E6"/>
<path d="M112.717 52.0529L111.795 52.6374C112.969 54.4813 114.096 56.3917 115.141 58.3069L116.102 57.7841C115.046 55.8452 113.905 53.9158 112.717 52.0529Z" fill="#E6E6E6"/>
<path d="M104.798 41.3461L103.966 42.0542C105.382 43.7175 106.761 45.4568 108.063 47.2152L108.938 46.5641C107.626 44.7868 106.233 43.0284 104.798 41.3461Z" fill="#E6E6E6"/>
<path d="M95.4909 31.813L94.7637 32.6257C96.3988 34.0846 98.0007 35.6196 99.5266 37.1831L100.311 36.418C98.7661 34.8355 97.1451 33.2862 95.4909 31.813Z" fill="#E6E6E6"/>
<path d="M84.9765 23.6296L84.3633 24.5326C86.1791 25.7539 87.9759 27.056 89.7014 28.4009L90.3764 27.5407C88.6271 26.1816 86.8113 24.8652 84.9765 23.6296Z" fill="#E6E6E6"/>
<path d="M75.4077 17.946V19.1816C76.5438 19.7756 77.6704 20.3981 78.7732 21.035L79.3198 20.0893C78.0364 19.3479 76.7323 18.6335 75.4077 17.946Z" fill="#E6E6E6"/>
<path d="M126.823 102.639L127.915 102.619C127.935 103.722 127.937 104.831 127.92 105.915L126.827 105.898C126.844 104.826 126.843 103.73 126.823 102.639Z" fill="#E6E6E6"/>
<path d="M62.5785 182.807L61.4995 182.973C61.837 185.131 62.1032 187.336 62.2981 189.517L63.3866 189.422C63.1917 187.212 62.9208 184.988 62.5785 182.807Z" fill="#E6E6E6"/>
<path d="M59.6263 169.814L58.5806 170.132C59.2128 172.223 59.7784 174.367 60.2585 176.5L61.328 176.258C60.8384 174.101 60.2633 171.933 59.6263 169.814Z" fill="#E6E6E6"/>
<path d="M54.9158 157.354L53.9224 157.81C54.835 159.801 55.6906 161.844 56.4654 163.888L57.4874 163.503C56.7031 161.436 55.8427 159.364 54.9158 157.354Z" fill="#E6E6E6"/>
<path d="M48.5462 145.672L47.624 146.257C48.7981 148.101 49.9247 150.011 50.9704 151.926L51.9306 151.404C50.8754 149.465 49.7345 147.535 48.5462 145.672Z" fill="#E6E6E6"/>
<path d="M40.6268 134.966L39.7949 135.674C41.2114 137.337 42.5899 139.076 43.8924 140.835L44.767 140.184C43.455 138.406 42.0623 136.648 40.6268 134.966Z" fill="#E6E6E6"/>
<path d="M31.3196 125.433L30.5923 126.245C32.2275 127.704 33.8294 129.239 35.3552 130.803L36.1395 130.038C34.5947 128.455 32.9737 126.906 31.3196 125.433Z" fill="#E6E6E6"/>
<path d="M20.8051 117.249L20.1919 118.152C22.0077 119.373 23.8045 120.676 25.53 122.02L26.205 121.16C24.4557 119.801 22.6399 118.485 20.8051 117.249Z" fill="#E6E6E6"/>
<path d="M11.2363 111.565V112.801C12.3724 113.395 13.499 114.018 14.6018 114.654L15.1484 113.709C13.865 112.967 12.5609 112.253 11.2363 111.565Z" fill="#E6E6E6"/>
<path d="M62.6519 196.258L63.7445 196.238C63.7646 197.342 63.7661 198.45 63.749 199.535L62.6564 199.518C62.673 198.446 62.6716 197.349 62.6519 196.258Z" fill="#E6E6E6"/>
<path d="M282.186 135.759L281.107 135.926C281.445 138.083 281.711 140.288 281.906 142.469L282.995 142.374C282.8 140.165 282.529 137.941 282.186 135.759Z" fill="#E6E6E6"/>
<path d="M279.234 122.767L278.188 123.085C278.821 125.176 279.386 127.319 279.866 129.453L280.936 129.211C280.446 127.053 279.871 124.886 279.234 122.767Z" fill="#E6E6E6"/>
<path d="M274.524 110.306L273.53 110.762C274.443 112.754 275.299 114.797 276.073 116.841L277.095 116.456C276.311 114.388 275.451 112.316 274.524 110.306Z" fill="#E6E6E6"/>
<path d="M268.154 98.6251L267.232 99.2097C268.406 101.054 269.533 102.964 270.578 104.879L271.539 104.356C270.483 102.417 269.342 100.488 268.154 98.6251Z" fill="#E6E6E6"/>
<path d="M260.235 87.9183L259.403 88.6264C260.819 90.2896 262.198 92.029 263.5 93.7873L264.375 93.1363C263.063 91.3589 261.67 89.6006 260.235 87.9183Z" fill="#E6E6E6"/>
<path d="M250.927 78.3853L250.2 79.1979C251.835 80.6568 253.437 82.1918 254.963 83.7553L255.747 82.9902C254.203 81.4077 252.582 79.8584 250.927 78.3853Z" fill="#E6E6E6"/>
<path d="M240.413 70.2018L239.8 71.1048C241.616 72.3261 243.412 73.6282 245.138 74.9731L245.813 74.1129C244.064 72.7538 242.248 71.4375 240.413 70.2018Z" fill="#E6E6E6"/>
<path d="M230.844 64.5181V65.7537C231.98 66.3477 233.107 66.9703 234.21 67.6071L234.756 66.6614C233.473 65.92 232.169 65.2056 230.844 64.5181Z" fill="#E6E6E6"/>
<path d="M282.26 149.211L283.352 149.191C283.373 150.294 283.374 151.403 283.357 152.487L282.264 152.47C282.281 151.398 282.28 150.302 282.26 149.211Z" fill="#E6E6E6"/>
<path d="M70.966 94.9953H70.1603V94.1893H70.003V94.9953H69.1968V95.1521H70.003V95.9581H70.1603V95.1521H70.966V94.9953Z" fill="#F2F2F2"/>
<path d="M61.6774 143.638H60.8717V142.832H60.7144V143.638H59.9082V143.795H60.7144V144.601H60.8717V143.795H61.6774V143.638Z" fill="#F2F2F2"/>
<path d="M34.4225 186.269H33.6164V185.464H33.459V186.269H32.6533V186.426H33.459V187.232H33.6164V186.426H34.4225V186.269Z" fill="#F2F2F2"/>
<path d="M110.241 132.2C102.448 120.619 99.0647 106.631 100.704 92.7701C102.343 78.9096 108.896 66.0952 119.175 56.6509C129.454 47.2065 142.777 41.7574 156.73 41.2919C170.683 40.8264 184.34 45.3751 195.226 54.1133C206.112 62.8515 213.505 75.2005 216.065 88.9209C218.625 102.641 216.182 116.825 209.179 128.899C202.176 140.973 191.077 150.138 177.895 154.733C164.712 159.327 150.32 159.047 137.326 153.942C136.484 156.948 134.909 159.698 132.743 161.946C130.577 164.195 127.887 165.871 124.914 166.825C121.941 167.779 118.777 167.981 115.707 167.413C112.637 166.845 109.755 165.524 107.321 163.57C104.886 161.615 102.974 159.088 101.756 156.214C100.538 153.339 100.052 150.208 100.341 147.1C100.63 143.991 101.686 141.003 103.414 138.403C105.141 135.803 107.487 133.671 110.241 132.2Z" fill="white"/>
<path d="M158.35 66.264C171.733 66.264 180.94 73.6852 180.94 84.3532C180.94 91.4175 177.514 96.3055 170.912 100.195C164.702 103.798 162.597 106.438 162.597 111.005C162.597 111.375 162.524 111.742 162.382 112.084C162.241 112.426 162.033 112.736 161.771 112.998C161.509 113.26 161.199 113.468 160.857 113.609C160.515 113.751 160.148 113.824 159.778 113.824H152.936C152.205 113.824 151.503 113.54 150.978 113.033C150.452 112.525 150.144 111.834 150.119 111.103L150.106 110.755C149.5 103.406 152.069 98.8387 158.529 95.0568C164.56 91.4532 167.094 89.1698 167.094 84.7456C167.094 80.3215 162.811 77.0747 157.494 77.0747C153.452 77.0747 150.254 79.0415 148.786 82.2526C148.271 83.3396 147.455 84.2562 146.434 84.894C145.414 85.5319 144.232 85.8642 143.029 85.8517C138.394 85.8517 135.331 80.9233 137.499 76.8269C140.929 70.3469 148.164 66.264 158.35 66.264ZM148.964 127.417C148.964 123.314 152.39 120.068 156.601 120.068C160.848 120.068 164.274 123.279 164.274 127.417C164.274 131.556 160.848 134.767 156.601 134.767C152.355 134.767 148.964 131.556 148.964 127.417Z" fill="#00B3FE"/>
</g>
<defs>
<clipPath id="clip0">
<rect width="525" height="379" fill="white"/>
</clipPath>
</defs>
</svg>
