<svg width="66" height="66" viewBox="0 0 66 66" fill="none" xmlns="http://www.w3.org/2000/svg">
<path d="M15.4688 33C15.4688 29.73 16.3697 26.6668 17.9349 24.044V12.9183H6.80922C2.39353 18.6531 0 25.6423 0 33C0 40.3577 2.39353 47.3469 6.80922 53.0817H17.9349V41.956C16.3697 39.3332 15.4688 36.27 15.4688 33Z" fill="#FBBD00"/>
<path d="M33 50.5312L25.2656 58.2656L33 66C40.3578 66 47.3469 63.6065 53.0817 59.1908V48.077H41.9679C39.3221 49.6478 36.246 50.5312 33 50.5312Z" fill="#0F9D58"/>
<path d="M17.9352 41.956L6.80957 53.0817C7.68381 54.2171 8.63579 55.3044 9.66588 56.3346C15.8988 62.5674 24.1857 66 33.0004 66V50.5313C26.6035 50.5313 20.997 47.0869 17.9352 41.956Z" fill="#31AA52"/>
<path d="M66 33C66 30.9923 65.8182 28.9809 65.4596 27.0217L65.1695 25.4363H33V40.9051H48.6559C47.1356 43.9293 44.798 46.3967 41.9677 48.0772L53.0815 59.1909C54.2169 58.3167 55.3043 57.3647 56.3345 56.3346C62.5674 50.1016 66 41.8146 66 33Z" fill="#3C79E6"/>
<path d="M45.3965 20.6035L46.7637 21.9707L57.7018 11.0327L56.3346 9.66552C50.1017 3.43264 41.8147 0 33 0L25.2656 7.73438L33 15.4688C37.6826 15.4688 42.0852 17.2923 45.3965 20.6035Z" fill="#CF2D48"/>
<path d="M33.0005 15.4688V0C24.1859 0 15.8989 3.43264 9.66588 9.66539C8.63579 10.6955 7.68381 11.7828 6.80957 12.9183L17.9352 24.044C20.9971 18.9131 26.6036 15.4688 33.0005 15.4688Z" fill="#EB4132"/>
</svg>
