<svg width="66" height="66" viewBox="0 0 66 66" fill="none" xmlns="http://www.w3.org/2000/svg">
<g clip-path="url(#clip0)">
<path d="M33 65.999C51.2254 65.999 66 51.2244 66 32.999C66 14.7736 51.2254 -0.00100708 33 -0.00100708C14.7746 -0.00100708 0 14.7736 0 32.999C0 51.2244 14.7746 65.999 33 65.999Z" fill="#007AB9"/>
<path d="M52.7171 35.6548V49.26H44.8292V36.5666C44.8292 33.3794 43.6903 31.2029 40.8343 31.2029C38.6548 31.2029 37.3601 32.6682 36.7883 34.0871C36.5806 34.5942 36.5271 35.2983 36.5271 36.0095V49.2594H28.6386C28.6386 49.2594 28.7445 27.761 28.6386 25.5356H36.5277V28.8975C36.5118 28.924 36.4895 28.9499 36.4753 28.9752H36.5277V28.8975C37.576 27.2845 39.4455 24.9785 43.6368 24.9785C48.8264 24.9785 52.7171 28.3692 52.7171 35.6548ZM20.3865 14.0999C17.6882 14.0999 15.9229 15.8712 15.9229 18.1983C15.9229 20.476 17.637 22.2984 20.283 22.2984H20.3342C23.0855 22.2984 24.7961 20.476 24.7961 18.1983C24.7438 15.8712 23.0855 14.0999 20.3865 14.0999ZM16.3917 49.26H24.2773V25.5356H16.3917V49.26Z" fill="#F1F2F2"/>
</g>
<defs>
<clipPath id="clip0">
<rect width="66" height="66" fill="white"/>
</clipPath>
</defs>
</svg>
