<svg width="115" height="33" viewBox="0 0 115 33" fill="none" xmlns="http://www.w3.org/2000/svg">
<path d="M17.5272 5.01682L17.5 5L7.03057 10.984L7 11.0008V22.9992L17.4728 28.9832L17.5 29L27.9728 23.016L28 22.9992V11.0008L17.5272 5.01682ZM27.8845 22.9353L17.5 28.8622L7.13248 22.9353V11.0647L17.517 5.13112L27.9015 11.0647L27.8845 22.9353Z" fill="#00B3FE"/>
<path d="M19.9375 7.40892V14.2622V22.2634H18.7778V6.73403L17.5035 6L8 11.4965V22.493L12.1458 24.8899V12.1819H13.0625L13.3021 12.7037V20.7536V25.5648L17.4965 28L27 22.5035V11.4965L19.9375 7.40892ZM17.3889 22.3121H16.4514L13.6389 16.2103V13.4273L16.2257 19.0386V12.2619H17.3889V22.3121ZM23.0694 22.2565H20.2917V21.0911H23.0694V22.2565Z" fill="#00B3FE"/>
<path d="M34.442 15.9494H34.4108L31.5236 7.15459C31.606 7.1079 31.6744 7.04044 31.7219 6.95907C31.7694 6.8777 31.7942 6.78532 31.7939 6.69134C31.7944 6.59193 31.7669 6.49435 31.7145 6.40953C31.6622 6.32471 31.587 6.256 31.4974 6.21112C31.4078 6.16623 31.3073 6.14693 31.2072 6.15539C31.1072 6.16384 31.0115 6.19971 30.9309 6.25898L23.2709 0.7515C23.3005 0.683174 23.3158 0.609644 23.316 0.535317C23.316 0.464729 23.3019 0.394839 23.2745 0.329668C23.2471 0.264497 23.207 0.205335 23.1564 0.155582C23.1058 0.10583 23.0458 0.066472 22.9798 0.039773C22.9138 0.013074 22.8431 -0.000441485 22.7718 1.09967e-05C22.6534 -0.000178317 22.5381 0.0384182 22.4441 0.109789C22.3501 0.181159 22.2825 0.281302 22.2519 0.394631H12.7689C12.7383 0.281302 12.6707 0.181159 12.5767 0.109789C12.4827 0.0384182 12.3674 -0.000178317 12.249 1.09967e-05C12.1607 -0.000430087 12.0736 0.020544 11.9954 0.0610992C11.9172 0.101654 11.8502 0.160558 11.8002 0.232661C11.7503 0.304765 11.719 0.387877 11.709 0.474731C11.699 0.561586 11.7107 0.64954 11.7429 0.730912L4.1731 6.17662C4.12215 6.11485 4.05789 6.06513 3.98504 6.03109C3.91218 5.99706 3.83256 5.97958 3.752 5.97992C3.67144 5.98026 3.59198 5.99842 3.51942 6.03306C3.44685 6.06771 3.38303 6.11797 3.33261 6.18017C3.28219 6.24238 3.24644 6.31494 3.22799 6.39258C3.20953 6.47021 3.20883 6.55095 3.22594 6.62889C3.24304 6.70682 3.27753 6.78 3.32686 6.84305C3.3762 6.9061 3.43914 6.95744 3.51109 6.99331L0.575361 15.9391H0.544167C0.399845 15.9391 0.261434 15.9959 0.159383 16.0969C0.0573319 16.1979 0 16.335 0 16.4778C0 16.6207 0.0573319 16.7578 0.159383 16.8588C0.261434 16.9598 0.399845 17.0166 0.544167 17.0166H0.575361L3.51109 25.9589C3.4036 26.015 3.31831 26.1053 3.26899 26.2152C3.21966 26.3251 3.20917 26.4483 3.2392 26.5649C3.26923 26.6814 3.33804 26.7846 3.43453 26.8577C3.53102 26.9308 3.64956 26.9695 3.77104 26.9678C3.84605 26.9672 3.92013 26.9514 3.98869 26.9213C4.05726 26.8912 4.11885 26.8474 4.16964 26.7928L11.7672 32.2488C11.7352 32.3189 11.7187 32.3949 11.7187 32.4718C11.7213 32.6033 11.7723 32.7293 11.8623 32.826C11.9522 32.9228 12.0747 32.9837 12.2068 32.9972C12.3389 33.0107 12.4715 32.9759 12.5795 32.8993C12.6875 32.8228 12.7635 32.7098 12.7931 32.5816H22.2831C22.3128 32.7098 22.3888 32.8228 22.4968 32.8993C22.6048 32.9759 22.7373 33.0107 22.8694 32.9972C23.0015 32.9837 23.1241 32.9228 23.214 32.826C23.3039 32.7293 23.355 32.6033 23.3576 32.4718C23.3571 32.3846 23.3357 32.2988 23.2952 32.2213L30.8304 26.7996C30.8817 26.8545 30.9439 26.8984 31.013 26.9285C31.0822 26.9586 31.1569 26.9743 31.2324 26.9747C31.3536 26.9756 31.4716 26.9363 31.5675 26.8629C31.6634 26.7895 31.7316 26.6864 31.7612 26.57C31.7907 26.4537 31.78 26.3309 31.7306 26.2213C31.6812 26.1117 31.5961 26.0217 31.4889 25.9658L34.4246 17.0234H34.4558C34.6002 17.0234 34.7386 16.9667 34.8406 16.8657C34.9427 16.7646 35 16.6276 35 16.4847C35 16.3418 34.9427 16.2048 34.8406 16.1038C34.7386 16.0027 34.6002 15.946 34.4558 15.946L34.442 15.9494ZM27.8912 21.8927C27.7658 21.8901 27.6434 21.9304 27.5447 22.0069C27.4459 22.0833 27.3768 22.1912 27.3491 22.3122C27.3214 22.4332 27.3368 22.56 27.3926 22.6712C27.4484 22.7823 27.5413 22.8709 27.6555 22.9221L22.9833 31.9743C22.9233 31.9524 22.86 31.9408 22.7961 31.94C22.7119 31.9404 22.629 31.9601 22.5538 31.9976C22.4786 32.0351 22.4132 32.0894 22.3628 32.1561L17.9298 28.7247C18.0087 28.6276 18.0504 28.5061 18.0476 28.3815C18.0487 28.2958 18.0291 28.211 17.9904 28.1342C17.9517 28.0574 17.8951 27.9909 17.8252 27.9402C17.7553 27.8895 17.6742 27.8561 17.5886 27.8426C17.503 27.8292 17.4154 27.8363 17.3331 27.8631C17.2508 27.89 17.1762 27.9359 17.1154 27.9971C17.0547 28.0583 17.0096 28.133 16.9839 28.2149C16.9581 28.2968 16.9526 28.3837 16.9676 28.4681C16.9826 28.5526 17.0178 28.6324 17.0702 28.7007L12.6545 32.1321C12.6043 32.0719 12.5413 32.0235 12.47 31.9903C12.3987 31.957 12.3208 31.9399 12.242 31.94C12.1628 31.9395 12.0845 31.9571 12.0133 31.9914L7.33413 22.9152C7.41077 22.883 7.47893 22.8338 7.53333 22.7714C7.58774 22.709 7.62696 22.635 7.64795 22.5552C7.66895 22.4754 7.67117 22.392 7.65445 22.3112C7.63772 22.2304 7.6025 22.1545 7.55149 22.0894C7.50047 22.0242 7.43504 21.9715 7.36021 21.9353C7.28538 21.8991 7.20317 21.8804 7.11989 21.8807C7.03661 21.8809 6.9545 21.9 6.87987 21.9366C6.80525 21.9732 6.7401 22.0263 6.68944 22.0917L0.942761 16.8519C1.03609 16.7533 1.08803 16.6233 1.08803 16.4881C1.08803 16.353 1.03609 16.223 0.942761 16.1244L6.69291 10.8983C6.74657 10.9559 6.81236 11.0012 6.88563 11.0309C6.95891 11.0606 7.03787 11.074 7.11694 11.0701C7.19602 11.0663 7.27327 11.0453 7.34326 11.0086C7.41324 10.972 7.47424 10.9206 7.52195 10.858C7.56966 10.7955 7.60291 10.7233 7.61935 10.6467C7.6358 10.57 7.63504 10.4907 7.61712 10.4143C7.59921 10.338 7.56458 10.2665 7.51568 10.2048C7.46678 10.1432 7.4048 10.0929 7.33413 10.0576L12.0029 1.01229C12.0786 1.0523 12.1631 1.0735 12.249 1.07406C12.3311 1.07357 12.412 1.05482 12.4858 1.01918C12.5596 0.983545 12.6244 0.931931 12.6753 0.868168L17.0356 4.24815C16.9786 4.3324 16.9484 4.43158 16.9489 4.53296C16.9487 4.61649 16.9681 4.69893 17.0056 4.77377C17.043 4.8486 17.0976 4.91378 17.1649 4.96416C17.2322 5.01454 17.3104 5.04872 17.3933 5.06403C17.4763 5.07934 17.5617 5.07535 17.6428 5.05236C17.7239 5.02938 17.7985 4.98804 17.8607 4.9316C17.9229 4.87517 17.971 4.80518 18.0012 4.72718C18.0314 4.64918 18.0429 4.5653 18.0347 4.48217C18.0265 4.39903 17.9989 4.31891 17.9541 4.24815L22.3351 0.84758C22.3847 0.916469 22.4503 0.972642 22.5262 1.01143C22.6022 1.05023 22.6864 1.07052 22.7718 1.07063C22.8469 1.07045 22.9212 1.05528 22.9902 1.02602L27.6208 9.9924C27.5574 10.0419 27.5061 10.105 27.4707 10.1769C27.4353 10.2488 27.4167 10.3276 27.4163 10.4076C27.4156 10.5043 27.4413 10.5994 27.4908 10.6828C27.5402 10.7662 27.6116 10.8347 27.6973 10.8812C27.7829 10.9276 27.8797 10.9503 27.9773 10.9466C28.0749 10.943 28.1697 10.9132 28.2516 10.8606L34.0434 16.121C33.95 16.2195 33.8981 16.3496 33.8981 16.4847C33.8981 16.6198 33.95 16.7499 34.0434 16.8484L28.2967 22.0917C28.2475 22.0317 28.1858 21.9828 28.1158 21.9485C28.0459 21.9141 27.9692 21.8951 27.8912 21.8927ZM34.2964 15.9734C34.2371 15.9894 34.1809 16.0149 34.13 16.0489L28.3418 10.7919C28.3932 10.7424 28.4342 10.6832 28.4621 10.6178C28.4901 10.5524 28.5046 10.4821 28.5047 10.411C28.5081 10.2864 28.4663 10.1646 28.3868 10.0679L30.9032 7.08596C30.9999 7.168 31.1224 7.21411 31.2498 7.21635C31.3065 7.21439 31.3625 7.20398 31.4161 7.18547L34.2964 15.9734ZM30.8304 6.3379C30.7452 6.43253 30.6972 6.55432 30.6952 6.68105C30.6934 6.80489 30.7337 6.92574 30.8096 7.02419L28.2932 10.0027C28.1967 9.92086 28.0737 9.87584 27.9466 9.87573C27.8608 9.87669 27.7765 9.89786 27.7005 9.93749L23.0768 0.974547C23.1251 0.940509 23.1672 0.898761 23.2016 0.851015L30.8304 6.3379ZM22.2173 0.504435V0.531887C22.2158 0.606379 22.2311 0.680258 22.2623 0.74807L17.8674 4.15893C17.8172 4.10703 17.757 4.06573 17.6903 4.03751C17.6236 4.00929 17.5518 3.99474 17.4792 3.99474C17.4067 3.99474 17.3349 4.00929 17.2681 4.03751C17.2014 4.06573 17.1412 4.10703 17.091 4.15893L12.7203 0.768658C12.7592 0.695693 12.7795 0.614393 12.7793 0.531887C12.7793 0.531887 12.7793 0.514729 12.7793 0.504435H22.2173ZM11.7949 0.816698C11.8254 0.862195 11.8628 0.902718 11.9058 0.936801L7.22668 10.0199C7.18417 10.0061 7.1397 9.99913 7.09497 9.99927C6.97723 10 6.86291 10.0385 6.76916 10.1091L4.10725 6.95557C4.20857 6.87574 4.27759 6.76257 4.30176 6.63663C4.32593 6.51068 4.30365 6.38033 4.23896 6.26928L11.7949 0.816698ZM3.61854 7.04821C3.66795 7.0634 3.71931 7.0715 3.77104 7.07224C3.85438 7.07245 3.9365 7.05241 4.0102 7.0139L6.68598 10.1846C6.60185 10.2798 6.55403 10.4012 6.5508 10.5277C6.55048 10.6233 6.57687 10.7171 6.62705 10.7988L0.856111 16.0489C0.805228 16.0149 0.749016 15.9894 0.689741 15.9734L3.61854 7.04821ZM0.689741 16.9994C0.749532 16.9849 0.805993 16.9593 0.856111 16.9239L6.62359 22.1638C6.56649 22.2608 6.54209 22.3733 6.55393 22.485C6.56577 22.5966 6.61324 22.7017 6.68944 22.7848L4.01367 25.9521C3.89064 25.8888 3.74728 25.8765 3.61507 25.9178L0.689741 16.9994ZM4.23549 26.7036C4.28568 26.6219 4.31207 26.5281 4.31175 26.4325C4.31134 26.3524 4.29311 26.2733 4.25837 26.201C4.22363 26.1286 4.17321 26.0647 4.11072 26.0138L6.77263 22.8603C6.86585 22.9289 6.97881 22.9662 7.09497 22.9667C7.13827 22.9663 7.18135 22.9605 7.22321 22.9496L11.9162 32.0429C11.8742 32.0742 11.8369 32.1112 11.8053 32.1527L4.23549 26.7036ZM12.7862 32.4684C12.7861 32.3796 12.7635 32.2923 12.7203 32.2145L17.1499 28.783C17.2455 28.8673 17.3685 28.9148 17.4965 28.9169C17.623 28.9165 17.7455 28.8729 17.8431 28.7933L22.3039 32.2488C22.2712 32.3186 22.2546 32.3948 22.2554 32.4718L12.7862 32.4684ZM23.2155 32.1253C23.1783 32.0805 23.1338 32.0422 23.0838 32.012L27.7629 22.9496C27.8048 22.9605 27.8479 22.9663 27.8912 22.9667C28.0073 22.9662 28.1203 22.9289 28.2135 22.8603L30.8789 26.0138C30.8154 26.0641 30.7641 26.1277 30.7287 26.2002C30.6933 26.2726 30.6747 26.352 30.6744 26.4325C30.6741 26.5281 30.7005 26.6219 30.7506 26.7036L23.2155 32.1253ZM31.3711 25.9178C31.3216 25.9028 31.2703 25.8948 31.2186 25.8937C31.1332 25.8952 31.0492 25.9151 30.9725 25.9521L28.2967 22.778C28.3729 22.6948 28.4204 22.5898 28.4322 22.4781C28.444 22.3664 28.4197 22.2539 28.3625 22.1569L34.13 16.9445C34.1801 16.9799 34.2366 17.0055 34.2964 17.02L31.3711 25.9178Z" fill="#00B3FE"/>
<path d="M44 9H43V24H44V9Z" fill="#00B3FE"/>
<path d="M98.4974 23.1105C95.7487 23.0617 93 23.054 90.2478 23.0257L81.9983 23L73.7487 23.0283C71 23.054 68.2478 23.0643 65.4991 23.1105C59.9983 23.1851 54.4974 23.2931 49 23.4987C54.4974 23.7069 59.9983 23.8149 65.4991 23.8869C68.2478 23.9332 71 23.9434 73.7487 23.9717L81.9983 24L90.2478 23.9717C93 23.9434 95.7487 23.9357 98.4974 23.8895C103.998 23.8149 109.499 23.7069 115 23.4987C109.499 23.2905 103.998 23.1825 98.4974 23.1105Z" fill="#00B3FE"/>
<path d="M49 11H51.9415L53.6655 15.9258V11H56V20H52.8035L51.3273 15.95V19.9827H49V11Z" fill="#00B3FE"/>
<path d="M66.2917 11.0173L68 20H65.7326L65.5451 19.1432L63.4306 19.0948L63.2153 19.9827H61L62.7951 11L66.2917 11.0173ZM64.5938 13.567L63.8542 17.0841H65.1667L64.5938 13.567Z" fill="#00B3FE"/>
<path d="M79 11V13.2517H76.6739V20H74.3405V13.2517H72V11H79Z" fill="#00B3FE"/>
<path d="M84 11H86.2701V17.7526H90V20H84V11Z" fill="#00B3FE"/>
<path d="M95 11H97.3369L97.3657 17.0727C97.3502 17.1656 97.3575 17.2606 97.3869 17.3503C97.4164 17.4399 97.4671 17.5217 97.5352 17.589C97.6032 17.6563 97.6866 17.7074 97.7787 17.738C97.8708 17.7687 97.9691 17.7781 98.0656 17.7656H98.9344C99.0306 17.7767 99.1282 17.7662 99.2196 17.735C99.311 17.7038 99.3938 17.6528 99.4615 17.5858C99.5291 17.5188 99.5799 17.4377 99.6099 17.3487C99.6399 17.2598 99.6483 17.1653 99.6344 17.0727V11H102V17.6859C101.971 19.224 101.237 19.9954 99.7959 20H97.2041C95.7682 20 95.0335 19.261 95 17.7829V11Z" fill="#00B3FE"/>
<path d="M107 11H109.356V15.5L111.676 11H114L111.676 15.6315L113.989 20H111.419L110.407 18.0546L109.388 19.9792H107V11Z" fill="#00B3FE"/>
</svg>
