<svg width="74" height="74" viewBox="0 0 74 74" fill="none" xmlns="http://www.w3.org/2000/svg">
<path d="M37 0C16.597 0 0 16.5985 0 37C0 57.4015 16.597 74 37 74C57.403 74 74 57.4015 74 37C74 16.5985 57.403 0 37 0ZM51.7091 38.2963L30.1258 52.1713C29.8729 52.3353 29.5808 52.4167 29.2917 52.4167C29.0388 52.4167 28.7828 52.3534 28.554 52.2285C28.0571 51.9575 27.75 51.4395 27.75 50.875V23.125C27.75 22.5605 28.0571 22.0425 28.554 21.7715C29.0418 21.5035 29.653 21.52 30.1258 21.8287L51.7091 35.7037C52.1488 35.9867 52.4167 36.4761 52.4167 37C52.4167 37.5239 52.1488 38.0132 51.7091 38.2963Z" fill="white"/>
</svg>
